<mxfile host="app.diagrams.net" modified="2023-10-12T15:46:52.404Z" agent="Mozilla/5.0 (Windows NT 10.0; Win64; x64) AppleWebKit/537.36 (KHTML, like Gecko) Chrome/117.0.0.0 Safari/537.36" version="22.0.4" etag="zAe6Rpl-Dvond2nAECsy" type="github">
  <diagram name="페이지-1" id="Y3rJlZjAx1mTmncxVAhc">
    <mxGraphModel>
      <root>
        <mxCell id="0" />
        <mxCell id="1" parent="0" />
      </root>
    </mxGraphModel>
  </diagram>
</mxfile>
